<svg width="300" height="300" xmlns="http://www.w3.org/2000/svg">
 <g>
  <title>Layer 1</title>
  <path fill="#23d160" stroke="null" id="svg_1" d="m256.430648,17.000013c-13.610008,0 -24.683138,10.404338 -24.683138,23.192331l0,58.037521c-3.924619,-2.473849 -8.641841,-3.922081 -13.712854,-3.922081c-5.191687,0 -10.009012,1.521675 -13.988483,4.105043c-1.689424,-11.043415 -11.795797,-19.566597 -24.009837,-19.566597l-0.979098,0c-7.518758,0 -14.250398,3.228888 -18.708447,8.287393c-4.458049,-5.058505 -11.188318,-8.287393 -18.708447,-8.287393l-0.979098,0c-13.390602,0 -24.284094,10.235549 -24.284094,22.817389l0,46.385951c-0.456638,1.963617 -1.811468,3.588369 -3.845084,4.483851c-2.434032,1.07329 -5.113523,0.794982 -7.219818,-0.734424l-41.588345,-41.443408c-4.859836,-4.843332 -11.437892,-7.564565 -18.521952,-7.662489c-7.041551,-0.095346 -13.743023,2.441637 -18.7537,7.147103c-9.032657,8.487105 -10.107745,22.158984 -2.499853,31.80184l45.596612,57.788847c10.659002,16.351882 17.522285,29.340876 22.243621,42.091504c9.627795,26.005046 35.804263,43.476602 65.136058,43.476602l63.890931,0c33.248187,0 60.298163,-25.416218 60.298163,-56.656289l0,-54.150228l0,-48.961588l0,-85.038548c0,-12.787994 -11.07313,-23.192331 -24.683138,-23.192331zm-38.395992,87.615474c7.561268,0 13.712854,5.780044 13.712854,12.884629l0,56.692366c0,7.104584 -6.151586,12.884629 -13.712854,12.884629s-13.712854,-5.780044 -13.712854,-12.884629c0,-0.537289 0,-56.692366 0,-56.692366c0,-7.104584 6.151586,-12.884629 13.712854,-12.884629zm-38.977417,-15.461554l0.979098,0c7.341862,0 13.31381,5.611256 13.31381,12.509686l0,67.748665c0,6.89843 -5.971948,12.509686 -13.31381,12.509686l-0.979098,0c-6.80569,0 -12.426589,-4.825293 -13.212335,-11.025377c0.034282,-0.493481 0.034282,-70.225091 0,-70.718572c0.785747,-6.198795 6.406646,-11.024088 13.212335,-11.024088zm-38.395992,0l0.979098,0c6.80569,0 12.426589,4.825293 13.212335,11.025377c-0.034282,0.493481 -0.034282,70.225091 0,70.718572c-0.785747,6.200083 -6.405274,11.025377 -13.212335,11.025377l-0.979098,0c-7.341862,0 -13.31381,-5.611256 -13.31381,-12.509686l0,-20.387348c0.120673,-0.798847 0.182381,-1.614444 0.182381,-2.442926l0,-5.890852c0,-0.4355 -0.074049,-0.850385 -0.182381,-1.254963l0,-37.773865c0,-6.89843 5.971948,-12.509686 13.31381,-12.509686zm129.482256,139.190065c0,25.556661 -22.128433,46.348586 -49.32788,46.348586l-63.890931,0c-24.668054,0 -46.679928,-14.691053 -54.775997,-36.556268c-5.007934,-13.527571 -12.218153,-27.186566 -23.377674,-44.285757c-0.08502,-0.128846 -0.174153,-0.253827 -0.270143,-0.376231l-45.740597,-57.970521c-4.396341,-5.571313 -3.775149,-13.470879 1.443964,-18.37348c2.893412,-2.719945 6.712442,-4.150139 10.835898,-4.130812c4.093287,0.056692 7.893119,1.628617 10.701512,4.427158l41.844775,41.698523c0.150841,0.149462 0.311282,0.291193 0.47995,0.423904c5.18483,4.059946 12.123535,5.036601 18.310774,2.642637l0,7.221834c0,12.58184 10.893492,22.817389 24.284094,22.817389l0.979098,0c3.247204,0 6.342195,-0.61202 9.175271,-1.703348c6.129646,5.776179 9.623681,13.658995 9.623681,21.842022l0,15.938285c0,2.846214 2.455972,5.153851 5.485142,5.153851s5.485142,-2.307637 5.485142,-5.153851l0,-15.939574c0,-10.339914 -4.189277,-20.316482 -11.581877,-27.88749c0.170039,-0.181673 0.355163,-0.350462 0.519717,-0.537289c4.458049,5.058505 11.188318,8.287393 18.708447,8.287393l0.979098,0c6.48618,0 12.371737,-2.415868 16.732425,-6.322487c4.293495,6.853334 12.207183,11.476339 21.265895,11.476339c13.610008,0 24.683138,-10.404338 24.683138,-23.192331l0,-56.692366l0,-77.307771c0,-7.104584 6.151586,-12.884629 13.712854,-12.884629s13.712854,5.780044 13.712854,12.884629l0,85.038548l0,48.961588l0,54.151517l0.001371,0z"/>
 </g>
</svg>